name Walk2_EMG.mot
datacolumns 17
datarows 27
range 3.93700000 3.96300000
endheader
                time	            vasmed_r	            vaslat_r	            recfem_r	               gra_r	               sar_r	            tibant_r	           perlong_r	            addmag_r	           semimem_r	          bicfemlh_r	            gasmed_r	            gaslat_r	               sol_r	               tfl_r	              gmed_r	              gmax_r	
          3.93700000	          0.31366488	          0.54178224	          0.51716234	          0.22221060	          0.03796791	          0.09922754	          0.41675554	          0.72365936	          0.08208094	          0.25601848	          0.37651624	          0.44182683	          0.47446187	          0.35880684	          0.44040286	          0.28004846	
          3.93800000	          0.30952855	          0.53227386	          0.51909215	          0.21970894	          0.03774218	          0.09821156	          0.41255372	          0.72465870	          0.07919685	          0.25192591	          0.37825102	          0.44180160	          0.48333307	          0.35821202	          0.44043592	          0.27650976	
          3.93900000	          0.30540685	          0.52275642	          0.52047165	          0.21723048	          0.03752117	          0.09724146	          0.40900720	          0.72477384	          0.07672489	          0.24774842	          0.37974989	          0.44156650	          0.49167952	          0.35751045	          0.44079388	          0.27368411	
          3.94000000	          0.30134264	          0.51325747	          0.52130196	          0.21478950	          0.03730528	          0.09631806	          0.40615455	          0.72401857	          0.07465631	          0.24350676	          0.38099801	          0.44113520	          0.49946773	          0.35670201	          0.44146769	          0.27156264	
          3.94100000	          0.29738136	          0.50380060	          0.52158656	          0.21240885	          0.03709493	          0.09544209	          0.40403146	          0.72242492	          0.07298018	          0.23922046	          0.38198189	          0.44051984	          0.50666758	          0.35578835	          0.44244385	          0.27013445	
          3.94200000	          0.29356730	          0.49440532	          0.52133060	          0.21011683	          0.03689056	          0.09461442	          0.40267455	          0.72005214	          0.07168439	          0.23490750	          0.38269050	          0.43973219	          0.51325142	          0.35477028	          0.44370329	          0.26938656	
          3.94300000	          0.28994075	          0.48508762	          0.52053989	          0.20794372	          0.03669261	          0.09383605	          0.40211895	          0.71698695	          0.07075629	          0.23058396	          0.38311584	          0.43878521	          0.51919376	          0.35364690	          0.44522136	          0.26930435	
          3.94400000	          0.28653595	          0.47586085	          0.51922040	          0.20591908	          0.03650151	          0.09310823	          0.40239349	          0.71333718	          0.07018303	          0.22626431	          0.38325222	          0.43769414	          0.52447143	          0.35241644	          0.44697005	          0.26987158	
          3.94500000	          0.28338000	          0.46673648	          0.51737835	          0.20406981	          0.03631765	          0.09243306	          0.40351718	          0.70922332	          0.06995227	          0.22196175	          0.38309559	          0.43647692	          0.52906462	          0.35107723	          0.44892075	          0.27106955	
          3.94600000	          0.28049354	          0.45772435	          0.51502052	          0.20241900	          0.03614137	          0.09181409	          0.40549712	          0.70476853	          0.07005259	          0.21768816	          0.38264363	          0.43515227	          0.53295876	          0.34962848	          0.45104531	          0.27287525	
          3.94700000	          0.27789412	          0.44883298	          0.51215462	          0.20098606	          0.03597296	          0.09125571	          0.40832812	          0.70008803	          0.07047272	          0.21345415	          0.38189642	          0.43373739	          0.53614571	          0.34807037	          0.45331511	          0.27525967	
          3.94800000	          0.27560072	          0.44007053	          0.50879045	          0.19978801	          0.03581271	          0.09076185	          0.41199406	          0.69528259	          0.07120008	          0.20926908	          0.38085678	          0.43224816	          0.53862253	          0.34640419	          0.45569953	          0.27818867	
          3.94900000	          0.27363554	          0.43144507	          0.50494189	          0.19883969	          0.03566084	          0.09033518	          0.41646928	          0.69043915	          0.07222018	          0.20514083	          0.37953051	          0.43069996	          0.54038902	          0.34463402	          0.45816550	          0.28162529	
          3.95000000	          0.27202285	          0.42296384	          0.50062832	          0.19815217	          0.03551755	          0.08997721	          0.42171982	          0.68563536	          0.07351694	          0.20107585	          0.37792710	          0.42910767	          0.54144637	          0.34276895	          0.46067843	          0.28553017	
          3.95100000	          0.27078714	          0.41463285	          0.49587391	          0.19773150	          0.03538295	          0.08968864	          0.42770570	          0.68094384	          0.07507337	          0.19708022	          0.37606172	          0.42748610	          0.54179705	          0.34082355	          0.46320355	          0.28986071	
          3.95200000	          0.26995141	          0.40645727	          0.49070486	          0.19757886	          0.03525710	          0.08946934	          0.43438304	          0.67643587	          0.07687214	          0.19316125	          0.37395701	          0.42584965	          0.54144538	          0.33881521	          0.46570662	          0.29457143	
          3.95300000	          0.26953551	          0.39844189	          0.48514664	          0.19769190	          0.03514001	          0.08931833	          0.44170394	          0.67218483	          0.07889588	          0.18932747	          0.37164100	          0.42421007	          0.54039822	          0.33676051	          0.46815491	          0.29961536	
          3.95400000	          0.26955449	          0.39059248	          0.47922309	          0.19806707	          0.03503161	          0.08923389	          0.44961514	          0.66826831	          0.08112713	          0.18558726	          0.36914212	          0.42257446	          0.53866535	          0.33467443	          0.47051948	          0.30494426	
          3.95500000	          0.27001755	          0.38291995	          0.47295677	          0.19870219	          0.03493181	          0.08921370	          0.45805787	          0.66476845	          0.08354814	          0.18194789	          0.36648706	          0.42094539	          0.53625939	          0.33257172	          0.47277686	          0.31050816	
          3.95600000	          0.27092751	          0.37544450	          0.46636976	          0.19959651	          0.03484046	          0.08925529	          0.46697043	          0.66177049	          0.08614116	          0.17841546	          0.36370251	          0.41932237	          0.53319648	          0.33046709	          0.47490873	          0.31625564	
          3.95700000	          0.27228011	          0.36819447	          0.45948404	          0.20074795	          0.03475744	          0.08935680	          0.47629263	          0.65935992	          0.08888833	          0.17499467	          0.36081682	          0.41770371	          0.52949749	          0.32837389	          0.47690053	          0.32213484	
          3.95800000	          0.27406364	          0.36119957	          0.45232164	          0.20215064	          0.03468260	          0.08951737	          0.48596709	          0.65762002	          0.09177118	          0.17168845	          0.35785937	          0.41608796	          0.52518818	          0.32630394	          0.47873944	          0.32809522	
          3.95900000	          0.27625948	          0.35448500	          0.44490449	          0.20379438	          0.03461580	          0.08973674	          0.49593623	          0.65663132	          0.09477030	          0.16849799	          0.35485841	          0.41447410	          0.52029913	          0.32426880	          0.48041330	          0.33409145	
          3.96000000	          0.27884306	          0.34806999	          0.43725449	          0.20566522	          0.03455688	          0.09001454	          0.50614007	          0.65647148	          0.09786555	          0.16542329	          0.35183943	          0.41286088	          0.51486673	          0.32228039	          0.48191183	          0.34008809	
          3.96100000	          0.28178486	          0.34196851	          0.42939371	          0.20774578	          0.03450571	          0.09034970	          0.51651888	          0.65721350	          0.10103658	          0.16246388	          0.34882468	          0.41124606	          0.50893438	          0.32035118	          0.48322789	          0.34606091	
          3.96200000	          0.28505166	          0.33618989	          0.42134408	          0.21001561	          0.03446228	          0.09074014	          0.52701789	          0.65892230	          0.10426345	          0.15961902	          0.34583369	          0.40962655	          0.50255377	          0.31849385	          0.48435669	          0.35199448	
          3.96300000	          0.28860862	          0.33073900	          0.41312701	          0.21245182	          0.03442681	          0.09118286	          0.53758873	          0.66165223	          0.10752680	          0.15688722	          0.34288443	          0.40799893	          0.49578533	          0.31672138	          0.48529409	          0.35787862	
